<svg width="34" height="34" viewBox="0 0 34 34" fill="none" xmlns="http://www.w3.org/2000/svg">
<path d="M17 33C25.8366 33 33 25.8366 33 17C33 8.16344 25.8366 1 17 1C8.16344 1 1 8.16344 1 17C1 25.8366 8.16344 33 17 33Z" stroke="#262626" stroke-width="2" stroke-miterlimit="10" stroke-linecap="round" stroke-linejoin="round"/>
<path d="M17 16.9111C19.7001 16.9111 21.8889 14.7621 21.8889 12.1111C21.8889 9.46014 19.7001 7.31111 17 7.31111C14.2999 7.31111 12.1111 9.46014 12.1111 12.1111C12.1111 14.7621 14.2999 16.9111 17 16.9111Z" stroke="#262626" stroke-width="2" stroke-miterlimit="10" stroke-linecap="round" stroke-linejoin="round"/>
<path d="M18.7778 17H15.4889C12.8222 17 10.6889 19.1333 10.6889 21.8V25.7111C12.5556 26.6889 13.6222 27.2222 17 27.2222C20.3778 27.2222 21.6222 26.6 23.5778 25.6222V21.8C23.5778 19.1333 21.3556 17 18.7778 17Z" stroke="#262626" stroke-width="2" stroke-miterlimit="10" stroke-linecap="round" stroke-linejoin="round"/>
</svg>
