<svg width="48" height="48" viewBox="0 0 48 48" fill="none" xmlns="http://www.w3.org/2000/svg">
<path fill-rule="evenodd" clip-rule="evenodd" d="M17.6382 4.75C16.3029 4.75 15.2073 5.84563 15.2073 7.18091V20.6203C15.2073 21.0345 14.8715 21.3703 14.4573 21.3703C14.0431 21.3703 13.7073 21.0345 13.7073 20.6203V7.18091C13.7073 5.0172 15.4745 3.25 17.6382 3.25H33.5428C35.7065 3.25 37.4737 5.0172 37.4737 7.18091V40.8191C37.4737 42.9828 35.7065 44.75 33.5428 44.75H17.6382C15.4745 44.75 13.7073 42.9828 13.7073 40.8191V28.5726C13.7073 28.1584 14.0431 27.8226 14.4573 27.8226C14.8715 27.8226 15.2073 28.1584 15.2073 28.5726V40.8191C15.2073 42.1544 16.3029 43.25 17.6382 43.25H33.5428C34.8781 43.25 35.9737 42.1544 35.9737 40.8191V7.18091C35.9737 5.84563 34.8781 4.75 33.5428 4.75H17.6382Z" fill="#262626"/>
<path d="M25.5905 40.4215C26.4689 40.4215 27.181 39.7094 27.181 38.8311C27.181 37.9527 26.4689 37.2406 25.5905 37.2406C24.7121 37.2406 24.0001 37.9527 24.0001 38.8311C24.0001 39.7094 24.7121 40.4215 25.5905 40.4215Z" fill="#262626"/>
<path fill-rule="evenodd" clip-rule="evenodd" d="M21.6595 8.69189C21.6595 8.27768 21.9953 7.94189 22.4095 7.94189H28.7714C29.1856 7.94189 29.5214 8.27768 29.5214 8.69189C29.5214 9.10611 29.1856 9.44189 28.7714 9.44189H22.4095C21.9953 9.44189 21.6595 9.10611 21.6595 8.69189Z" fill="#262626"/>
<path fill-rule="evenodd" clip-rule="evenodd" d="M18.6849 20.899C18.9702 20.5987 19.4449 20.5865 19.7452 20.8718L22.9261 23.8936C23.0704 24.0308 23.1543 24.2196 23.1593 24.4186C23.1643 24.6177 23.09 24.8105 22.9527 24.9546L19.7717 28.2946C19.4861 28.5945 19.0113 28.6061 18.7114 28.3205C18.4115 28.0348 18.3999 27.5601 18.6855 27.2601L21.3486 24.4639L18.7121 21.9593C18.4118 21.674 18.3996 21.1993 18.6849 20.899Z" fill="#262626"/>
<path fill-rule="evenodd" clip-rule="evenodd" d="M10.5264 24.5964C10.5264 24.1822 10.8622 23.8464 11.2764 23.8464H20.8191C21.2333 23.8464 21.5691 24.1822 21.5691 24.5964C21.5691 25.0106 21.2333 25.3464 20.8191 25.3464H11.2764C10.8622 25.3464 10.5264 25.0106 10.5264 24.5964Z" fill="#262626"/>
</svg>
